<svg version="1.1" xmlns="http://www.w3.org/2000/svg" style="display: block;" viewBox="3.3218297958374023 6.772899150848389 1679.630126953125 1646.727783203125" width="422" height="415" preserveAspectRatio="none">
<defs>
	<linearGradient id="Gradient1" gradientUnits="userSpaceOnUse" x1="819.635" y1="1664.13" x2="865.788" y2="-4.25654">
		<stop class="stop0" offset="0" stop-opacity="1" stop-color="rgb(32,87,255)"/>
		<stop class="stop1" offset="1" stop-opacity="1" stop-color="rgb(5,157,255)"/>
	</linearGradient>
</defs>
<path transform="translate(0,0)" fill="url(#Gradient1)" d="M 1664.97 1443 C 1660.99 1456.51 1653.92 1471.54 1647.51 1484.09 C 1612.53 1552.57 1553.78 1607.33 1480.18 1631.53 C 1453.88 1640.18 1419.39 1649.75 1391.71 1651.79 C 1363.06 1653.89 1333.81 1653.21 1305.09 1653.23 L 1177.55 1653.23 L 777.521 1653.06 L 447.185 1653.23 L 343.12 1653.06 C 326.774 1653.02 309.489 1654.28 293.298 1652.71 C 283.666 1651.78 273.899 1649.29 264.416 1647.38 C 230.855 1640.62 199.921 1631.72 169.283 1616.2 C 96.49 1579.35 43.6794 1513.09 18.5652 1435.94 C 9.42564 1407.86 5.87705 1378.19 4.37438 1348.82 C 2.85558 1319.13 3.40314 1289.42 3.48314 1259.71 L 3.59529 1141.96 L 3.79444 760.5 L 3.931 465.416 L 3.89746 370.435 C 3.91158 345.935 3.5299 321.431 5.66591 296.998 C 8.92187 259.755 19.0552 219.094 36.177 185.647 C 75.5616 108.71 144.03 52.5296 226.378 26.4711 C 265.182 14.1919 304.282 9.71527 344.69 7.39052 C 361.236 6.43861 377.99 6.8775 394.57 6.85259 L 507.944 7.50077 L 880.838 7.58604 L 1193.26 7.64973 C 1260.02 7.69368 1324.68 4.69846 1391.31 11.7554 C 1435.14 16.8249 1477.69 29.7207 1516.96 49.8289 C 1597.21 91.0931 1645.42 157.551 1672.53 242.209 L 1672.64 243.027 C 1674.31 254.693 1678.28 266.182 1679.46 277.892 C 1682.97 312.83 1682.36 348.458 1682.23 383.527 L 1682.14 498.062 L 1682.19 813.882 L 1682.16 1168.27 C 1682.16 1236.47 1684.96 1305.51 1680.03 1373.56 C 1678.38 1396.35 1672.64 1421.55 1664.97 1443 z M 904.981 1245.58 C 913.621 1227.4 923.307 1209.68 932.401 1191.72 C 935.883 1184.85 938.351 1177.38 942.01 1170.64 C 943.527 1167.85 945.128 1165.49 947.559 1163.4 L 949.291 1163.34 C 956.781 1175.72 926.497 1322.63 933.998 1331.85 C 935.141 1333.25 937.591 1333.89 939.237 1334.29 C 954.668 1338.05 1038.4 1334.98 1055.71 1331.27 C 1062.96 1329.72 1070.63 1326.46 1076.88 1322.5 C 1082.16 1319.17 1087.06 1314.95 1090.18 1309.46 C 1100.5 1291.3 1104.77 1268.85 1109.94 1248.77 C 1118.18 1216.14 1125.83 1183.37 1132.87 1150.47 C 1138.84 1122.86 1155.86 1056.25 1151.67 1031.76 C 1142.34 1019.44 1130.56 1017.32 1115.89 1015.36 L 766.212 967.293 C 728.266 962.008 690.408 956.676 652.373 952.014 C 634.573 949.833 615.257 945.6 597.383 947.142 C 588.602 949.785 582.644 953.917 576.518 960.699 C 564.438 974.075 554.008 989.734 543.077 1004.09 C 525.528 1026.79 507.722 1049.28 489.664 1071.58 C 470.985 1093.98 451.982 1116.11 432.661 1137.96 C 422.113 1149.88 402.417 1168.82 395.275 1182.3 C 391.526 1189.39 389.07 1201.42 391.571 1209.11 C 394.852 1219.2 405.69 1224.95 414.686 1229.09 C 430.751 1236.48 507.375 1261.41 521.945 1255.3 C 535.18 1249.75 544.874 1230.83 553.471 1219.97 C 562.23 1208.9 619.227 1135.38 625.547 1133.71 L 626.815 1134.56 C 629.71 1151.82 583.014 1267.39 593.33 1274.8 C 597.285 1277.63 601.912 1279.27 606.577 1280.55 C 637.794 1289.09 670.741 1293.24 702.593 1298.9 C 731.496 1304.03 760.338 1308.29 789.305 1312.95 C 805.477 1315.56 821.55 1319.01 837.853 1320.71 C 844.624 1321.42 851.699 1322 858.444 1320.7 C 864.257 1319.58 869.352 1312.07 872.287 1307.29 C 884.392 1287.38 895.309 1266.78 904.981 1245.58 z M 903.052 923.094 C 927.038 925.207 950.706 929.497 974.506 932.969 C 1005.97 937.557 1037.54 941.36 1068.99 946.063 C 1086.16 948.63 1103.29 950.788 1120.51 952.949 C 1129.5 954.077 1138.59 955.858 1147.65 956.204 C 1152.22 956.379 1160.9 956.34 1164.6 953.509 C 1175.02 945.541 1169.54 894.244 1168.74 880.757 C 1168.02 868.859 1167 857.326 1164.9 845.568 C 1159.49 840.172 1155.12 837.549 1147.78 835.265 C 1125.67 828.385 1099.91 827.395 1076.9 824.179 C 1056.35 821.309 1036.03 817.083 1015.43 814.644 C 996.733 812.431 967.071 811.192 950.389 804.082 C 942.457 800.702 936.596 796.925 936.606 787.634 C 936.626 768.871 951.672 728.913 957.555 709.418 L 1022.23 491.707 L 1046.22 410.262 C 1050.51 395.477 1056.61 379.682 1058.19 364.341 C 1060.15 345.384 1059.48 322.507 1045.37 307.951 C 1033.3 295.492 1012.9 292.548 996.379 292.411 C 977.539 294.325 963.158 298.352 950.838 313.749 C 945.592 320.305 941.776 329.23 939.193 337.159 C 928.739 369.244 923.037 403.114 914.944 435.874 L 855.793 685.133 C 850.702 707.081 842.506 758.907 833.077 776.946 C 830.117 782.607 825.352 786.715 818.862 787.463 C 806.826 788.851 793.436 786.583 781.452 785.05 C 755.362 781.713 671.07 765.598 649.538 771.499 C 646.347 772.374 644.286 774.609 642.186 777.042 C 630.286 790.829 621.545 812.833 611.88 828.886 C 605.832 838.932 597.782 848.325 592.37 858.597 C 590.576 862.002 589.056 865.934 589.405 869.853 C 589.605 872.093 590.775 874.913 592.647 876.294 C 596.447 879.096 604.892 880.351 609.546 881.158 C 619.753 882.929 630.205 883.649 640.472 885.126 L 749.089 900.546 L 853.372 915.144 C 869.86 917.548 886.501 921.661 903.052 923.094 z M 546.884 631.429 C 548.993 629.959 550.819 628.503 552.041 626.187 C 555.643 619.364 557.375 611.024 559.408 603.618 C 565.114 582.837 571.312 559.541 585.772 542.971 C 596.954 530.158 615.299 522.282 630.9 516.11 C 636.761 513.792 643.316 511.813 648.641 508.431 C 652.978 505.678 656.872 501.856 657.945 496.649 C 658.525 493.834 658.162 491.441 656.509 489.052 C 646.697 474.867 600.332 469.567 577.876 436.198 C 568.547 422.335 562.291 405.966 558.245 389.816 C 556.3 382.051 555.172 373.227 551.264 366.139 C 549.061 362.141 546.698 360.187 542.22 359.392 C 524.074 379.667 529.94 419.371 496.391 451.16 C 489.113 458.056 480.206 463.626 471.188 467.935 C 458.486 474.004 431.412 479.521 431.693 497.409 C 431.746 500.748 433.206 503.452 435.705 505.597 C 439.967 509.256 446.815 510.386 451.951 512.724 C 477.523 524.362 499.292 535.617 513.318 561.112 C 520.563 574.281 534.122 625.249 540.843 630.566 C 542.963 632.244 544.395 631.65 546.884 631.429 z M 1304.94 729.687 C 1319 708.963 1316.98 679.485 1338.19 662.678 C 1342.35 659.435 1346.77 656.526 1351.39 653.978 C 1356.6 651.147 1388.31 638.386 1386.77 631.3 C 1385.92 627.391 1380.78 624.129 1377.44 622.375 C 1365.84 616.278 1353.37 612.549 1342.65 604.66 C 1316.9 585.707 1319.68 552.149 1302.52 537.627 C 1287.69 557.424 1286.04 585.226 1265.81 601.775 C 1260.87 605.824 1255.24 609.231 1249.57 612.147 C 1242.31 615.876 1219.46 622.72 1220.34 632.515 C 1220.65 635.939 1223.47 638.599 1226.12 640.478 C 1240.23 650.469 1256.84 653.039 1269.64 665.793 C 1289.53 685.602 1290.69 719.769 1304.94 729.687 z M 354.151 924.655 C 359.298 922.181 361.498 917.602 363.277 912.401 C 376.126 874.825 375.95 871.551 411.52 851.786 C 415.9 849.352 421.215 846.663 424.081 842.418 C 419.693 834.426 392.544 823.119 382.994 813.797 C 370.301 801.407 366.659 771.727 354.107 764.522 C 345.118 780.045 339.63 802.609 326.267 814.658 C 314.442 825.32 295.135 829.969 287.746 836.918 C 285.539 838.993 285.15 839.986 284.752 842.928 C 285.738 845.128 286.719 846.592 288.784 847.926 C 301.996 856.456 313.205 857.555 325.561 870.236 C 344.2 889.366 343.455 913.395 354.151 924.655 z"/>
</svg>